<!-- icon666.com - MILLIONS vector ICONS FREE --><svg enable-background="new 0 0 32 32" viewBox="0 0 32 32" xmlns="http://www.w3.org/2000/svg"><g id="Cog"><g><path d="m13.5 29.8c-.5-.1-.8-.5-.8-1v-2c-.5-.2-1.1-.4-1.6-.6l-1.5 1.5c-.3.3-.9.4-1.2.1-1.4-.9-2.6-2.1-3.6-3.4-.3-.4-.3-1 .1-1.3l1.4-1.4c-.4-.7-.8-1.5-1-2.3h-2c-.5 0-.9-.4-1-.8-.2-.8-.3-4.1 0-5 .1-.5.5-.8 1-.8h2c.2-.6.4-1.2.7-1.8l-1.5-1.6c-.3-.3-.4-.8-.1-1.2.9-1.4 2.1-2.6 3.5-3.6.4-.3.9-.2 1.3.1l1.4 1.4c.7-.4 1.4-.7 2.1-.9v-2c0-.5.3-.9.8-1 1.6-.3 3.4-.3 5 0 .5.1.8.5.8 1v2c.8.2 1.6.6 2.3 1l1.4-1.4c.3-.4.9-.4 1.3-.1 1.4 1 2.5 2.2 3.4 3.6.3.4.2.9-.1 1.2l-1.5 1.5c.3.5.5 1 .6 1.6h2c.5 0 .8.4 1 .8.4 1.1.2 4.1 0 5-.1.5-.5.8-1 .8h-2c-.2.7-.5 1.4-.9 2.1l1.4 1.4c.3.3.4.9.1 1.3-1 1.4-2.2 2.5-3.6 3.5-.4.3-.9.2-1.3-.1l-1.3-1.4c-.6.3-1.2.5-1.8.7v2c0 .5-.4.8-.8 1-1.1.4-3.9.4-5 .1zm1.2-1.9c.9.1 1.8.1 2.6 0v-1.9c0-.5.3-.9.8-1 1-.2 1.9-.6 2.7-1.1.4-.2.9-.2 1.2.1l1.4 1.4c.7-.5 1.3-1.2 1.9-1.8l-1.4-1.4c-.3-.3-.4-.9-.1-1.2.6-.9 1-1.9 1.2-2.9.1-.5.5-.8 1-.8h1.9c.1-.4.1-2.2 0-2.6h-1.9c-.5 0-.9-.3-1-.8-.2-.9-.5-1.7-1-2.5-.2-.4-.2-.9.2-1.2l1.4-1.4c-.5-.7-1.1-1.3-1.8-1.9l-1.3 1.3c-.3.3-.9.4-1.3.1-1-.6-2-1.1-3.1-1.4-.5-.1-.8-.5-.8-1v-1.8c-.9-.1-1.8-.1-2.6 0v1.9c0 .5-.3.9-.8 1-1 .2-2 .7-2.9 1.2-.4.3-.9.2-1.2-.1l-1.4-1.4c-.7.6-1.3 1.2-1.9 1.9l1.4 1.4c.3.3.4.8.1 1.2-.4.9-.8 1.8-1 2.7-.1.5-.5.8-1 .8h-1.9c-.2.4-.2 2.2 0 2.6h1.9c.5 0 .9.3 1 .8.3 1.1.7 2.1 1.4 3.1.3.4.2.9-.1 1.3l-1.3 1.3c.6.7 1.2 1.3 1.9 1.8l1.4-1.4c.3-.3.8-.4 1.2-.2.8.5 1.6.8 2.5 1 .5.1.8.5.8 1v1.9z" fill="#000000" style="fill: rgb(47, 45, 45);"></path><path d="m16 22c-3.3 0-6-2.7-6-6s2.7-6 6-6 6 2.7 6 6-2.7 6-6 6zm0-10c-2.2 0-4 1.8-4 4s1.8 4 4 4 4-1.8 4-4-1.8-4-4-4z" fill="#000000" style="fill: rgb(47, 45, 45);"></path></g></g></svg>